Coordinates
version=1
nRows=22
nColumns=33
inDegrees=yes

Units are S.I. units (second, meters, Newtons, ...)
Angles are in degrees.

endheader
time	ground_thorax_rot_x	ground_thorax_rot_y	ground_thorax_rot_z	ground_thorax_tx	ground_thorax_ty	ground_thorax_tz	clav_prot_r	clav_elev_r	scapula_abduction_r	scapula_elevation_r	scapula_upward_rot_r	scapula_winging_r	shoulder_elv_r	plane_of_elev_r	axial_rot_r	elbow_flexion_r	pro_sup_r	wrist_flex_r	wrist_dev_r	clav_prot_l	clav_elev_l	scapula_abduction_l	scapula_elevation_l	scapula_upward_rot_l	scapula_winging_l	shoulder_elv_l	plane_of_elev_l	axial_rot_l	elbow_flexion_l	pro_sup_l	wrist_flex_l	wrist_dev_l	
2.0300	-37.900891	-5.061912	6.779098	-69.740674	782.417690	6.426953	7.246722	-45.000000	44.999999	-45.000000	-16.084869	-1887.580777	-3531.919890	32.618296	27.511832	727.006664	25.251226	16.729052	14.444445	14.519071	42.311513	-44.999996	-39.786757	-15.618194	2240.548480	-2984.582723	136.443095	180.000000	-1073.534435	18.559576	10.690903	-18.061863	
2.0400	-38.118641	-4.867123	6.483708	-71.608595	783.173458	6.328361	7.114500	-45.000000	44.999997	-45.000000	-15.800704	-1887.730398	-3531.738869	32.632164	27.796841	727.398362	24.915095	16.784293	14.329290	14.168403	42.482222	-44.999993	-39.998396	-14.956087	2240.935157	-2984.636340	136.490545	180.000000	-1073.449971	18.281906	10.612973	-18.181726	
2.0500	-38.335019	-4.713494	6.224811	-73.573434	783.959204	6.231568	6.994977	-45.000000	44.999995	-45.000000	-15.573310	-1887.896155	-3531.542581	32.654634	28.119729	727.791686	24.548242	16.822565	14.220279	13.820373	42.593236	-44.999987	-40.205432	-14.336314	2241.337460	-2984.678450	136.543027	180.000000	-1073.382860	17.947745	10.546849	-18.308807	
2.0600	-38.557895	-4.650421	6.096946	-75.745765	784.797738	6.136521	6.953219	-45.000000	44.999992	-45.000000	-15.545601	-1888.103228	-3531.332134	32.676496	28.515488	728.170206	24.106549	16.883515	14.050077	13.686023	42.867897	-44.999976	-40.491209	-14.118174	2241.649972	-2984.628753	136.570655	180.000000	-1073.266307	17.525825	10.454102	-18.387677	
2.0700	-38.785119	-4.648788	6.046481	-78.142734	785.706306	6.044685	6.951565	-45.000000	44.999985	-45.000000	-15.637557	-1888.347397	-3531.107460	32.698556	28.988869	728.541293	23.604707	16.953813	13.842118	13.656083	43.183839	-44.999958	-40.818259	-14.123614	2241.931305	-2984.529781	136.590027	180.000000	-1073.132027	17.004675	10.361473	-18.442495	
2.0800	-39.017615	-4.707335	6.070397	-80.795199	786.704519	5.956867	6.987814	-45.000000	44.999973	-45.000000	-15.846432	-1888.632726	-3530.870341	32.721268	29.543089	728.903028	23.043886	17.030729	13.597102	13.736427	43.532153	-44.999925	-41.188289	-14.353180	2242.183742	-2984.382415	136.600360	180.000000	-1072.984697	16.370632	10.267689	-18.474931	
2.0900	-39.254077	-4.803895	6.136721	-83.707194	787.808056	5.873572	7.042788	-45.000000	44.999952	-45.000000	-16.129186	-1888.956850	-3530.627075	32.744152	30.164969	729.256300	22.437499	17.111572	13.326418	13.881161	43.855887	-44.999865	-41.585379	-14.723866	2242.432132	-2984.210180	136.605584	180.000000	-1072.836612	15.617534	10.182200	-18.495529	
2.1000	-39.493381	-4.935236	6.238802	-86.869501	789.027504	5.794817	7.113933	-45.000000	44.999914	-45.000000	-16.483247	-1889.319159	-3530.382935	32.772551	30.827428	729.598107	21.786709	17.189833	13.043043	14.096161	44.128014	-44.999758	-42.005768	-15.221483	2242.682127	-2984.021168	136.603047	180.000000	-1072.697251	14.730565	10.100283	-18.508934	
2.1100	-39.731399	-5.072394	6.346902	-90.271110	790.367720	5.720313	7.182249	-45.000000	44.999846	-45.000000	-16.846505	-1889.708269	-3530.139932	32.789542	31.501910	729.920885	21.117242	17.271841	12.750138	14.302632	44.363321	-44.999566	-42.438197	-15.778516	2242.931461	-2983.829568	136.609927	180.000000	-1072.560977	13.741986	10.040521	-18.521561	
2.1200	-39.962180	-5.213669	6.461163	-93.899948	791.827616	5.650164	7.246330	-45.000000	44.999724	-45.000000	-17.211482	-1890.121516	-3529.896524	32.791774	32.161182	730.218427	20.447191	17.358263	12.453258	14.493436	44.567920	-44.999223	-42.875697	-16.388729	2243.173766	-2983.635709	136.633220	180.000000	-1072.424588	12.685328	10.000468	-18.538602	
2.1300	-40.181417	-5.372759	6.598868	-97.743593	793.400833	5.585343	7.322950	-45.000000	44.999505	-45.000000	-17.620256	-1890.559372	-3529.649752	32.788915	32.778886	730.484561	19.784306	17.448171	12.161572	14.691181	44.734353	-44.998608	-43.314647	-17.103441	2243.402053	-2983.422960	136.656424	180.000000	-1072.290910	11.571056	9.969576	-18.559639	
2.1400	-40.384499	-5.541218	6.749212	-101.789467	795.076842	5.527749	7.411780	-45.000000	44.999114	-45.000000	-18.071171	-1891.019916	-3529.395782	32.790895	33.342086	730.712341	19.126772	17.540928	11.881702	14.914514	44.849455	-44.997506	-43.742775	-17.902967	2243.623784	-2983.193068	136.671449	180.000000	-1072.169977	10.404170	9.942684	-18.583517	
2.1500	-40.566893	-5.698103	6.885242	-106.024302	796.842322	5.479806	7.490671	-45.000000	44.998413	-45.000000	-18.518275	-1891.495025	-3529.130974	32.792535	33.862764	730.898537	18.488100	17.639511	11.617803	15.086753	44.924821	-44.995535	-44.134487	-18.702523	2243.853542	-2982.956639	136.691325	180.000000	-1072.067722	9.225558	9.938754	-18.618427	
2.1600	-40.719694	-5.827322	6.988155	-110.433807	798.681948	5.443823	7.545733	-45.000000	44.997158	-45.000000	-18.922246	-1891.984310	-3528.853032	32.791087	34.359664	731.046224	17.869493	17.744370	11.369780	15.196155	44.955270	-44.991996	-44.458914	-19.426591	2244.113072	-2982.724965	136.725993	180.000000	-1071.986435	8.077793	9.959530	-18.669653	
2.1700	-40.838873	-5.962910	7.097693	-115.001865	800.579042	5.421188	7.607869	-45.000000	44.994906	-45.000000	-19.363110	-1892.492762	-3528.560248	32.800379	34.849610	731.162158	17.244557	17.848815	11.142097	15.309723	44.954233	-44.985677	-44.709430	-20.168367	2244.395102	-2982.466636	136.758888	180.000000	-1071.924154	6.963030	9.991014	-18.730373	
2.1800	-40.920272	-6.099846	7.213941	-119.710428	802.515882	5.411841	7.677136	-45.000000	44.990884	-45.000000	-19.827891	-1893.018939	-3528.254253	32.810628	35.340620	731.251602	16.588446	17.949031	10.934461	15.422865	44.918489	-44.974304	-44.875441	-20.896932	2244.704716	-2982.191389	136.800099	180.000000	-1071.876128	5.889262	10.040460	-18.799224	
2.1900	-40.967582	-6.249356	7.348737	-124.539702	804.473892	5.414013	7.760867	-45.000000	44.983648	-45.000000	-20.340611	-1893.557351	-3527.939778	32.818325	35.846849	731.321779	15.885489	18.042123	10.749183	15.517703	44.852678	-44.954083	-44.963929	-21.631058	2245.035999	-2981.897157	136.850712	180.000000	-1071.835909	4.874124	10.119053	-18.874578	
2.2000	-40.983412	-6.428621	7.533332	-129.469087	806.433897	5.424511	7.887846	-45.000000	44.970775	-45.000000	-20.952425	-1894.109159	-3527.622964	32.820637	36.364535	731.370766	15.101528	18.119428	10.587281	15.651857	44.747295	-44.917438	-44.993820	-22.426487	2245.371596	-2981.579564	136.897561	180.000000	-1071.798987	3.909433	10.218995	-18.945790	
2.2100	-40.976607	-6.667982	7.799176	-134.476744	808.377036	5.439180	8.081863	-45.000000	44.947464	-45.000000	-21.743351	-1894.668829	-3527.308745	32.831293	36.895935	731.396834	14.202666	18.174330	10.454927	15.876860	44.586387	-44.852977	-45.000000	-23.385457	2245.681763	-2981.221615	136.917391	180.000000	-1071.767735	2.961389	10.330283	-19.001103	
2.2200	-40.953425	-6.949435	8.125410	-139.539798	810.286249	5.453623	8.312748	-45.000000	44.906409	-45.000000	-22.669905	-1895.223153	-3527.004286	32.838893	37.445714	731.392676	13.185714	18.206181	10.349156	16.132583	44.376307	-44.734214	-45.000000	-24.436124	2245.946372	-2980.843222	136.918702	180.000000	-1071.749746	2.032430	10.466028	-19.041174	
2.2300	-40.919389	-7.264222	8.491196	-144.633897	812.147632	5.463740	8.539990	-45.000000	44.830911	-45.000000	-23.699190	-1895.754509	-3526.713508	32.842097	38.045759	731.361801	12.076873	18.220522	10.269825	16.340840	44.106015	-44.550389	-45.000000	-25.514129	2246.173106	-2980.461815	136.907533	180.000000	-1071.752540	1.153130	10.630088	-19.075443	
2.2400	-40.873503	-7.611364	8.902029	-149.733840	813.951941	5.466361	8.747226	-45.000000	44.701133	-45.000000	-24.827444	-1896.254789	-3526.434337	32.837027	38.704995	731.307135	10.906642	18.217760	10.213598	16.488547	43.794133	-44.298848	-45.000000	-26.603438	2246.358661	-2980.077637	136.889262	180.000000	-1071.772454	0.355002	10.814396	-19.108153	
